# xmcd CD database file
# Copyright (C) 1996 Ti Kan
#
# Track frame offsets:
# 	182
# 	13257
# 	26487
# 	40195
# 	49812
# 	66535
# 	78750
# 	91922
# 	105437
# 	117070
# 	130720
# 	142327
# 	155092
# 	167365
# 	186560
#
# Disc length: 2617 seconds
#
# Revision: 1
# Processed by: cddbd v1.4b41PL1 Copyright (c) Steve Scherf et al.
# Submitted via: DiscPlay 3.4.1
#
DISCID=c80a370f
DTITLE=Reba McEntire - Country Superstar - Vol. Two
DYEAR=1900
DGENRE=
TTITLE0=You're The First Time I've Thought About Leaving
TTITLE1=Is It Really Love
TTITLE2=Last Night, Ev'ry Night
TTITLE3=Reasons
TTITLE4=Don't Say Goodbye, Say Good Morning
TTITLE5=I Can See Forever In Your Eyes
TTITLE6=Gonna Love Ya (Till The Cows Come Home)
TTITLE7=One Good Reason
TTITLE8=Waitin' For The Sun To Shine
TTITLE9=I'd Say You
TTITLE10=(I Still Long To Hold You) Now And Then
TTITLE11=Whoever's Watchin'
TTITLE12=I Don't Think Love Ought To Be That Way
TTITLE13=Long Distance Lover
TTITLE14=I Know I'll Have A Better Tomorrow
EXTD=
EXTT0=
EXTT1=
EXTT2=
EXTT3=
EXTT4=
EXTT5=
EXTT6=
EXTT7=
EXTT8=
EXTT9=
EXTT10=
EXTT11=
EXTT12=
EXTT13=
EXTT14=
PLAYORDER=
